<svg xmlns="http://www.w3.org/2000/svg" width="1000" height="500" fill="none"><g clip-path="url(#a)"><rect width="1000" height="500" fill="#000" rx="20"/><path fill="#fff" d="M809.307 238.091v7.273h-21.023v-7.273zm-16.25-8.364h9.681v32.546q0 1.341.41 2.091a2.25 2.25 0 0 0 1.136 1.022q.75.296 1.727.296a8 8 0 0 0 1.364-.114q.682-.136 1.045-.204l1.523 7.204q-.728.228-2.045.523-1.318.318-3.205.386-3.5.137-6.136-.932-2.614-1.068-4.069-3.318-1.454-2.25-1.431-5.682zM773.301 273v-34.909h9.682V273zm4.864-39.409q-2.16 0-3.705-1.432-1.522-1.455-1.522-3.477 0-2 1.522-3.432 1.546-1.455 3.705-1.455t3.682 1.455q1.545 1.433 1.545 3.432 0 2.022-1.545 3.477-1.524 1.432-3.682 1.432m-33.341 29.364.022-11.614h1.41l11.181-13.25h11.114l-15.023 17.545h-2.295zM736.051 273v-46.545h9.682V273zm21.818 0-10.273-15.205 6.455-6.84L769.21 273zm-29.574-46.545V273h-9.681v-46.545zm-33.159 47.227q-5.295 0-9.159-2.25-3.84-2.272-5.932-6.318-2.09-4.068-2.09-9.432 0-5.41 2.09-9.455 2.091-4.068 5.932-6.318 3.864-2.273 9.159-2.273t9.137 2.273q3.863 2.25 5.954 6.318 2.091 4.046 2.091 9.455 0 5.364-2.091 9.432-2.09 4.046-5.954 6.318-3.841 2.25-9.137 2.25m.046-7.5q2.409 0 4.023-1.364 1.613-1.386 2.431-3.773.841-2.385.841-5.431t-.841-5.432q-.818-2.387-2.431-3.773-1.614-1.386-4.023-1.386-2.432 0-4.091 1.386-1.637 1.386-2.477 3.773-.819 2.386-.819 5.432 0 3.045.819 5.431.84 2.387 2.477 3.773 1.66 1.364 4.091 1.364m-39.296 7.5q-5.295 0-9.159-2.25-3.84-2.272-5.932-6.318-2.09-4.068-2.09-9.432 0-5.41 2.09-9.455 2.091-4.068 5.932-6.318 3.864-2.273 9.159-2.273t9.137 2.273q3.863 2.25 5.954 6.318 2.091 4.046 2.091 9.455 0 5.364-2.091 9.432-2.09 4.046-5.954 6.318-3.841 2.25-9.137 2.25m.046-7.5q2.409 0 4.023-1.364 1.613-1.386 2.431-3.773.841-2.385.841-5.431t-.841-5.432q-.818-2.387-2.431-3.773-1.614-1.386-4.023-1.386-2.432 0-4.091 1.386-1.637 1.386-2.477 3.773-.819 2.386-.819 5.432 0 3.045.819 5.431.84 2.387 2.477 3.773 1.66 1.364 4.091 1.364m-55.097-31.614v-8.113h38.227v8.113h-14.25V273h-9.727v-38.432zm-21.136-8.113V273h-9.841v-46.545zm-27.779 0h9.841v30.227q0 5.09-2.432 8.909-2.409 3.818-6.75 5.954-4.34 2.115-10.113 2.114-5.796 0-10.137-2.114-4.34-2.136-6.75-5.954-2.409-3.818-2.409-8.909v-30.227h9.841v29.386q0 2.659 1.159 4.727 1.182 2.068 3.319 3.25t4.977 1.182q2.864 0 4.977-1.182 2.136-1.182 3.296-3.25 1.18-2.068 1.181-4.727zm-75.267 59.636q-1.84 0-3.454-.296-1.591-.272-2.637-.704l2.182-7.227q1.705.522 3.068.568 1.387.045 2.387-.637 1.023-.681 1.659-2.318l.568-1.477-12.523-35.909h10.182l7.227 25.636h.364l7.295-25.636h10.25l-13.568 38.682q-.977 2.818-2.659 4.909-1.659 2.113-4.204 3.25-2.546 1.16-6.137 1.159m-12.284-48v7.273h-21.022v-7.273zm-16.25-8.364h9.682v32.546q0 1.341.409 2.091.41.727 1.137 1.022.75.296 1.727.296a8 8 0 0 0 1.364-.114q.682-.136 1.045-.204l1.523 7.204q-.727.228-2.046.523-1.318.318-3.204.386-3.5.137-6.137-.932-2.613-1.068-4.068-3.318t-1.432-5.682zM428.364 273v-34.909h9.681V273zm4.863-39.409q-2.159 0-3.704-1.432-1.523-1.455-1.523-3.477 0-2 1.523-3.432 1.545-1.455 3.704-1.455t3.682 1.455q1.546 1.433 1.546 3.432 0 2.022-1.546 3.477-1.522 1.432-3.682 1.432m-34.994 19.227V273h-9.682v-34.909h9.227v6.159h.409q1.16-3.045 3.887-4.818 2.727-1.796 6.613-1.796 3.637 0 6.341 1.591t4.205 4.546q1.5 2.932 1.5 7V273h-9.682v-20.5q.023-3.204-1.636-5-1.659-1.818-4.569-1.818-1.954 0-3.454.841-1.478.84-2.318 2.454-.819 1.591-.841 3.841m-27.438-26.363h9.841v30.227q0 5.09-2.431 8.909-2.41 3.818-6.75 5.954-4.341 2.115-10.114 2.114-5.796 0-10.136-2.114-4.341-2.136-6.75-5.954-2.41-3.818-2.41-8.909v-30.227h9.841v29.386q0 2.659 1.159 4.727 1.182 2.068 3.319 3.25t4.977 1.182q2.863 0 4.977-1.182 2.136-1.182 3.296-3.25 1.18-2.068 1.181-4.727zm-130.017-12.417 17.687 10.233c.636.36.659 1.356 0 1.716l-21.016 12.169a1.95 1.95 0 0 1-1.977 0l-21.017-12.169c-.647-.348-.658-1.368 0-1.716l17.676-10.233V194L187 220.123v52.244l17.306-10.012v-20.468c-.012-.73.844-1.251 1.479-.857l21.017 12.169c.636.371.994 1.031.994 1.715v24.326c.012.73-.844 1.252-1.48.858l-17.687-10.234-17.305 10.013L236.455 306l45.131-26.123-17.306-10.013-17.687 10.234c-.624.382-1.503-.116-1.48-.858v-24.326c0-.73.405-1.379.994-1.715l21.017-12.169c.624-.383 1.502.104 1.479.857v20.468l17.306 10.012v-52.244L240.778 194z"/></g><defs><clipPath id="a"><rect width="1000" height="500" fill="#fff" rx="20"/></clipPath></defs></svg>