<svg width="1000" height="500" viewBox="0 0 1000 500" fill="none" xmlns="http://www.w3.org/2000/svg">
<g clip-path="url(#clip0_10_2)">
<rect width="1000" height="500" rx="20" fill="#263538"/>
<path d="M0 0H518.5L453.5 500H0V0Z" fill="#FF3D00"/>
<path d="M355.586 269.543L348.384 269.986C348.261 269.37 347.997 268.816 347.59 268.324C347.184 267.819 346.649 267.419 345.984 267.124C345.331 266.816 344.55 266.662 343.639 266.662C342.42 266.662 341.392 266.92 340.555 267.437C339.718 267.942 339.299 268.619 339.299 269.469C339.299 270.146 339.57 270.718 340.112 271.186C340.653 271.654 341.583 272.029 342.9 272.312L348.034 273.347C350.791 273.913 352.847 274.824 354.201 276.08C355.555 277.335 356.233 278.985 356.233 281.028C356.233 282.887 355.685 284.518 354.589 285.922C353.506 287.325 352.016 288.421 350.12 289.209C348.237 289.984 346.064 290.372 343.602 290.372C339.847 290.372 336.856 289.59 334.627 288.027C332.411 286.451 331.113 284.309 330.731 281.601L338.468 281.195C338.702 282.339 339.269 283.214 340.167 283.817C341.066 284.408 342.217 284.703 343.62 284.703C344.999 284.703 346.107 284.438 346.944 283.909C347.794 283.367 348.224 282.672 348.237 281.822C348.224 281.108 347.923 280.524 347.332 280.068C346.741 279.6 345.83 279.243 344.599 278.997L339.687 278.018C336.917 277.464 334.855 276.504 333.501 275.138C332.159 273.771 331.488 272.029 331.488 269.912C331.488 268.09 331.981 266.52 332.965 265.203C333.963 263.886 335.36 262.87 337.157 262.156C338.967 261.442 341.084 261.085 343.509 261.085C347.092 261.085 349.911 261.842 351.967 263.357C354.035 264.871 355.242 266.933 355.586 269.543Z" fill="white"/>
<path d="M327.218 261.455V267.364H310.137V261.455H327.218ZM314.015 254.659H321.881V281.102C321.881 281.829 321.992 282.395 322.214 282.801C322.435 283.195 322.743 283.472 323.137 283.632C323.543 283.792 324.011 283.872 324.54 283.872C324.91 283.872 325.279 283.841 325.648 283.78C326.018 283.706 326.301 283.651 326.498 283.614L327.735 289.467C327.341 289.59 326.787 289.732 326.073 289.892C325.359 290.064 324.491 290.169 323.469 290.206C321.573 290.28 319.912 290.027 318.484 289.449C317.068 288.87 315.966 287.972 315.178 286.753C314.39 285.534 314.002 283.995 314.015 282.136V254.659Z" fill="white"/>
<path d="M287.65 273.42V289.818H279.784V261.455H287.281V266.459H287.613C288.241 264.809 289.294 263.504 290.771 262.544C292.248 261.571 294.039 261.085 296.144 261.085C298.114 261.085 299.832 261.516 301.296 262.378C302.761 263.24 303.9 264.471 304.713 266.071C305.525 267.659 305.931 269.555 305.931 271.758V289.818H298.065V273.162C298.077 271.426 297.634 270.072 296.735 269.099C295.837 268.115 294.6 267.622 293.024 267.622C291.965 267.622 291.029 267.85 290.217 268.305C289.417 268.761 288.789 269.426 288.333 270.3C287.89 271.161 287.662 272.202 287.65 273.42Z" fill="white"/>
<path d="M261.632 290.372C258.714 290.372 256.203 289.781 254.098 288.599C252.005 287.405 250.392 285.719 249.26 283.54C248.127 281.348 247.561 278.757 247.561 275.766C247.561 272.848 248.127 270.287 249.26 268.084C250.392 265.88 251.986 264.163 254.042 262.932C256.11 261.701 258.536 261.085 261.318 261.085C263.189 261.085 264.931 261.387 266.544 261.99C268.169 262.581 269.584 263.473 270.791 264.668C272.01 265.862 272.957 267.364 273.635 269.173C274.312 270.971 274.65 273.076 274.65 275.489V277.649H250.7V272.774H267.245C267.245 271.642 266.999 270.638 266.507 269.764C266.014 268.89 265.331 268.207 264.457 267.714C263.595 267.21 262.592 266.957 261.447 266.957C260.253 266.957 259.194 267.234 258.271 267.788C257.36 268.33 256.646 269.062 256.129 269.986C255.612 270.897 255.347 271.912 255.335 273.033V277.668C255.335 279.071 255.593 280.284 256.11 281.305C256.64 282.327 257.385 283.115 258.345 283.669C259.305 284.223 260.444 284.5 261.761 284.5C262.635 284.5 263.435 284.377 264.162 284.131C264.888 283.884 265.51 283.515 266.027 283.023C266.544 282.53 266.938 281.927 267.208 281.213L274.484 281.693C274.115 283.441 273.358 284.968 272.213 286.273C271.08 287.565 269.615 288.575 267.818 289.301C266.033 290.015 263.971 290.372 261.632 290.372Z" fill="white"/>
<path d="M224.224 273.42V289.818H216.358V261.455H223.855V266.459H224.187C224.815 264.809 225.868 263.504 227.345 262.544C228.822 261.571 230.614 261.085 232.719 261.085C234.688 261.085 236.406 261.516 237.871 262.378C239.336 263.24 240.474 264.471 241.287 266.071C242.099 267.659 242.506 269.555 242.506 271.758V289.818H234.639V273.162C234.651 271.426 234.208 270.072 233.31 269.099C232.411 268.115 231.174 267.622 229.598 267.622C228.539 267.622 227.604 267.85 226.791 268.305C225.991 268.761 225.363 269.426 224.908 270.3C224.464 271.161 224.237 272.202 224.224 273.42Z" fill="white"/>
<path d="M197.283 290.372C194.414 290.372 191.934 289.763 189.841 288.544C187.76 287.313 186.154 285.602 185.021 283.41C183.889 281.207 183.322 278.652 183.322 275.747C183.322 272.817 183.889 270.257 185.021 268.065C186.154 265.862 187.76 264.151 189.841 262.932C191.934 261.701 194.414 261.085 197.283 261.085C200.151 261.085 202.625 261.701 204.706 262.932C206.799 264.151 208.411 265.862 209.544 268.065C210.677 270.257 211.243 272.817 211.243 275.747C211.243 278.652 210.677 281.207 209.544 283.41C208.411 285.602 206.799 287.313 204.706 288.544C202.625 289.763 200.151 290.372 197.283 290.372ZM197.32 284.278C198.624 284.278 199.714 283.909 200.588 283.17C201.462 282.419 202.121 281.398 202.564 280.105C203.019 278.812 203.247 277.341 203.247 275.692C203.247 274.042 203.019 272.571 202.564 271.278C202.121 269.986 201.462 268.964 200.588 268.213C199.714 267.462 198.624 267.087 197.32 267.087C196.002 267.087 194.894 267.462 193.996 268.213C193.109 268.964 192.438 269.986 191.983 271.278C191.54 272.571 191.318 274.042 191.318 275.692C191.318 277.341 191.54 278.812 191.983 280.105C192.438 281.398 193.109 282.419 193.996 283.17C194.894 283.909 196.002 284.278 197.32 284.278Z" fill="white"/>
<path d="M151.561 300.455V261.455H159.317V266.219H159.668C160.012 265.455 160.511 264.68 161.163 263.892C161.828 263.092 162.69 262.427 163.749 261.898C164.82 261.356 166.149 261.085 167.737 261.085C169.805 261.085 171.714 261.627 173.462 262.71C175.21 263.781 176.607 265.4 177.653 267.567C178.7 269.721 179.223 272.423 179.223 275.673C179.223 278.837 178.712 281.508 177.69 283.687C176.681 285.854 175.302 287.498 173.554 288.618C171.818 289.726 169.873 290.28 167.719 290.28C166.192 290.28 164.893 290.027 163.822 289.523C162.764 289.018 161.896 288.384 161.219 287.621C160.542 286.845 160.025 286.063 159.668 285.276H159.428V300.455H151.561ZM159.261 275.636C159.261 277.323 159.495 278.794 159.963 280.05C160.431 281.305 161.108 282.284 161.994 282.986C162.881 283.675 163.958 284.02 165.226 284.02C166.506 284.02 167.589 283.669 168.476 282.967C169.362 282.253 170.033 281.268 170.489 280.013C170.956 278.745 171.19 277.286 171.19 275.636C171.19 273.999 170.963 272.559 170.507 271.315C170.052 270.072 169.381 269.099 168.494 268.398C167.608 267.696 166.518 267.345 165.226 267.345C163.945 267.345 162.862 267.684 161.976 268.361C161.102 269.038 160.431 269.998 159.963 271.241C159.495 272.485 159.261 273.95 159.261 275.636Z" fill="white"/>
<path d="M104.131 289.818V261.455H111.629V266.459H111.961C112.552 264.797 113.537 263.486 114.915 262.526C116.294 261.565 117.944 261.085 119.864 261.085C121.809 261.085 123.465 261.571 124.832 262.544C126.198 263.504 127.109 264.809 127.565 266.459H127.86C128.439 264.834 129.485 263.535 130.999 262.562C132.526 261.578 134.329 261.085 136.41 261.085C139.057 261.085 141.205 261.928 142.854 263.615C144.516 265.289 145.347 267.665 145.347 270.743V289.818H137.499V272.294C137.499 270.718 137.081 269.536 136.244 268.749C135.406 267.961 134.36 267.567 133.104 267.567C131.676 267.567 130.562 268.022 129.762 268.933C128.962 269.832 128.562 271.02 128.562 272.497V289.818H120.935V272.128C120.935 270.737 120.535 269.629 119.735 268.804C118.947 267.979 117.907 267.567 116.614 267.567C115.74 267.567 114.952 267.788 114.251 268.232C113.561 268.662 113.013 269.272 112.607 270.06C112.201 270.835 111.998 271.746 111.998 272.793V289.818H104.131Z" fill="white"/>
<path d="M85.056 290.372C82.1877 290.372 79.7071 289.763 77.6143 288.544C75.5338 287.313 73.9273 285.602 72.7947 283.41C71.6621 281.207 71.0958 278.652 71.0958 275.747C71.0958 272.817 71.6621 270.257 72.7947 268.065C73.9273 265.862 75.5338 264.151 77.6143 262.932C79.7071 261.701 82.1877 261.085 85.056 261.085C87.9244 261.085 90.3989 261.701 92.4793 262.932C94.5721 264.151 96.1848 265.862 97.3174 268.065C98.45 270.257 99.0163 272.817 99.0163 275.747C99.0163 278.652 98.45 281.207 97.3174 283.41C96.1848 285.602 94.5721 287.313 92.4793 288.544C90.3989 289.763 87.9244 290.372 85.056 290.372ZM85.093 284.278C86.3979 284.278 87.4874 283.909 88.3615 283.17C89.2355 282.419 89.8941 281.398 90.3373 280.105C90.7928 278.812 91.0205 277.341 91.0205 275.692C91.0205 274.042 90.7928 272.571 90.3373 271.278C89.8941 269.986 89.2355 268.964 88.3615 268.213C87.4874 267.462 86.3979 267.087 85.093 267.087C83.7757 267.087 82.6678 267.462 81.7691 268.213C80.8828 268.964 80.2118 269.986 79.7563 271.278C79.3132 272.571 79.0916 274.042 79.0916 275.692C79.0916 277.341 79.3132 278.812 79.7563 280.105C80.2118 281.398 80.8828 282.419 81.7691 283.17C82.6678 283.909 83.7757 284.278 85.093 284.278Z" fill="white"/>
<path d="M66.6547 265.24H58.5667C58.4189 264.194 58.1173 263.264 57.6618 262.452C57.2064 261.627 56.6216 260.925 55.9076 260.347C55.1936 259.768 54.3688 259.325 53.4332 259.017C52.5099 258.709 51.5065 258.555 50.4232 258.555C48.4658 258.555 46.7608 259.042 45.3082 260.014C43.8555 260.974 42.7291 262.378 41.9289 264.224C41.1287 266.059 40.7286 268.287 40.7286 270.909C40.7286 273.605 41.1287 275.87 41.9289 277.705C42.7414 279.539 43.874 280.924 45.3266 281.859C46.7793 282.795 48.4597 283.263 50.3678 283.263C51.4388 283.263 52.4298 283.121 53.3408 282.838C54.2641 282.555 55.0828 282.143 55.7968 281.601C56.5108 281.047 57.1017 280.376 57.5695 279.588C58.0496 278.8 58.382 277.901 58.5667 276.892L66.6547 276.929C66.4455 278.665 65.9223 280.339 65.0851 281.952C64.2603 283.552 63.1462 284.986 61.7428 286.254C60.3517 287.51 58.6898 288.507 56.757 289.246C54.8366 289.972 52.6637 290.335 50.2385 290.335C46.8654 290.335 43.8493 289.572 41.1903 288.045C38.5435 286.519 36.4507 284.309 34.9118 281.416C33.3853 278.523 32.6221 275.021 32.6221 270.909C32.6221 266.785 33.3976 263.276 34.9488 260.384C36.4999 257.491 38.605 255.287 41.2641 253.773C43.9232 252.246 46.9147 251.483 50.2385 251.483C52.4298 251.483 54.4611 251.791 56.3323 252.406C58.2158 253.022 59.8839 253.92 61.3366 255.102C62.7892 256.272 63.971 257.706 64.882 259.405C65.8053 261.104 66.3962 263.049 66.6547 265.24Z" fill="white"/>
<path d="M115.197 237.818V200H123.063V214.219H123.304C123.648 213.455 124.147 212.68 124.799 211.892C125.464 211.092 126.326 210.427 127.385 209.898C128.456 209.356 129.785 209.085 131.373 209.085C133.441 209.085 135.349 209.627 137.098 210.71C138.846 211.781 140.243 213.4 141.289 215.567C142.336 217.721 142.859 220.423 142.859 223.673C142.859 226.837 142.348 229.509 141.326 231.688C140.317 233.854 138.938 235.498 137.19 236.618C135.454 237.726 133.509 238.28 131.355 238.28C129.828 238.28 128.529 238.027 127.458 237.523C126.4 237.018 125.532 236.384 124.855 235.621C124.178 234.845 123.661 234.063 123.304 233.276H122.953V237.818H115.197ZM122.897 223.636C122.897 225.323 123.131 226.794 123.599 228.05C124.067 229.305 124.744 230.284 125.63 230.986C126.517 231.675 127.594 232.02 128.862 232.02C130.142 232.02 131.225 231.669 132.112 230.967C132.998 230.253 133.669 229.268 134.125 228.013C134.592 226.745 134.826 225.286 134.826 223.636C134.826 221.999 134.599 220.559 134.143 219.315C133.688 218.072 133.017 217.099 132.13 216.398C131.244 215.696 130.154 215.345 128.862 215.345C127.581 215.345 126.498 215.684 125.612 216.361C124.738 217.038 124.067 217.998 123.599 219.241C123.131 220.485 122.897 221.95 122.897 223.636Z" fill="white"/>
<path d="M96.8973 238.372C93.9797 238.372 91.4683 237.781 89.3632 236.599C87.2704 235.405 85.6577 233.719 84.5252 231.54C83.3926 229.348 82.8263 226.757 82.8263 223.766C82.8263 220.848 83.3926 218.287 84.5252 216.084C85.6577 213.88 87.252 212.163 89.3078 210.932C91.376 209.701 93.8012 209.085 96.5834 209.085C98.4546 209.085 100.197 209.387 101.809 209.99C103.434 210.581 104.85 211.473 106.056 212.668C107.275 213.862 108.223 215.364 108.9 217.173C109.577 218.971 109.916 221.076 109.916 223.489V225.649H85.9655V220.774H102.511C102.511 219.642 102.265 218.638 101.772 217.764C101.28 216.89 100.597 216.207 99.7226 215.714C98.8609 215.21 97.8575 214.957 96.7127 214.957C95.5185 214.957 94.4598 215.234 93.5365 215.788C92.6255 216.33 91.9115 217.062 91.3945 217.986C90.8774 218.897 90.6128 219.912 90.6004 221.033V225.668C90.6004 227.071 90.859 228.284 91.376 229.305C91.9054 230.327 92.6502 231.115 93.6104 231.669C94.5706 232.223 95.7093 232.5 97.0266 232.5C97.9006 232.5 98.7008 232.377 99.4271 232.131C100.153 231.884 100.775 231.515 101.292 231.023C101.809 230.53 102.203 229.927 102.474 229.213L109.75 229.693C109.38 231.441 108.623 232.968 107.478 234.273C106.346 235.565 104.881 236.575 103.083 237.301C101.298 238.015 99.2363 238.372 96.8973 238.372Z" fill="white"/>
<path d="M41.7997 237.818L30.9786 200H39.713L45.973 226.277H46.2869L53.1931 200H60.6718L67.5596 226.332H67.892L74.1519 200H82.8863L72.0653 237.818H64.2727L57.071 213.092H56.7755L49.5923 237.818H41.7997Z" fill="white"/>
<circle cx="500" cy="250" r="105" fill="white"/>
<path d="M581.24 266.643C578.869 267.279 576.615 266.989 574.478 265.773C572.362 264.552 570.998 262.753 570.384 260.376C569.739 258.055 570.03 255.847 571.257 253.754C572.5 251.632 574.307 250.254 576.678 249.619C578.918 249.019 581.117 249.324 583.276 250.533C585.452 251.715 586.862 253.467 587.508 255.788C587.909 257.374 587.877 258.924 587.412 260.437C586.969 261.944 586.203 263.255 585.113 264.37C584.046 265.48 582.755 266.237 581.24 266.643Z" fill="#222222"/>
<path d="M534.513 227.529C533.646 225.173 532.167 223.558 530.074 222.684C527.997 221.782 525.366 221.757 522.183 222.61C520.076 223.174 518.393 223.919 517.135 224.845C515.877 225.77 515.026 226.81 514.583 227.964C514.133 229.096 514.062 230.28 514.37 231.515C514.596 232.537 515.032 233.373 515.677 234.024C516.344 234.668 517.185 235.172 518.2 235.536C519.231 235.871 520.42 236.094 521.767 236.203C523.114 236.313 524.6 236.327 526.225 236.244L532.373 236.009C535.904 235.839 539.105 236.017 541.975 236.542C544.867 237.061 547.403 237.922 549.585 239.126C551.788 240.324 553.631 241.889 555.113 243.821C556.596 245.753 557.71 248.066 558.455 250.761C559.574 255.025 559.478 258.969 558.166 262.591C556.854 266.213 554.419 269.371 550.858 272.067C547.32 274.756 542.741 276.853 537.121 278.359C531.479 279.871 526.335 280.343 521.69 279.776C517.044 279.21 513.095 277.515 509.845 274.691C506.594 271.868 504.23 267.831 502.753 262.58L518.361 258.398C519.075 260.536 520.142 262.191 521.562 263.364C522.982 264.536 524.692 265.254 526.692 265.518C528.715 265.777 530.922 265.585 533.315 264.944C535.51 264.356 537.297 263.559 538.675 262.555C540.074 261.545 541.05 260.401 541.602 259.123C542.154 257.846 542.259 256.524 541.916 255.157C541.553 253.89 540.866 252.909 539.857 252.215C538.841 251.499 537.444 251.026 535.665 250.797C533.902 250.54 531.715 250.455 529.103 250.543L521.615 250.785C515.417 251.011 510.238 250.081 506.08 247.995C501.915 245.887 499.158 242.273 497.81 237.152C496.67 232.987 496.81 229.032 498.23 225.287C499.65 221.542 502.123 218.256 505.648 215.429C509.172 212.602 513.492 210.503 518.607 209.133C523.832 207.733 528.604 207.407 532.922 208.156C537.256 208.877 540.915 210.544 543.897 213.156C546.879 215.769 548.954 219.166 550.122 223.347L534.513 227.529Z" fill="#222222"/>
<path d="M436.416 232.144L464.733 277.497L465.293 277.347L467.139 223.912L485.382 219.024L480.698 292.56L458.998 298.375L418.173 237.032L436.416 232.144Z" fill="#222222"/>
<path d="M907.719 82.5938L895 104.422L882.281 82.5938H840L895 177.125L950 82.5938H907.719Z" fill="#42B883"/>
<path d="M907.719 82.5938L895 104.422L882.281 82.5938H862L895 139.312L928 82.5938H907.719Z" fill="#35495E"/>
<g clip-path="url(#clip1_10_2)">
<path d="M696.5 140.188C702.444 140.188 707.262 135.403 707.262 129.5C707.262 123.597 702.444 118.812 696.5 118.812C690.556 118.812 685.738 123.597 685.738 129.5C685.738 135.403 690.556 140.188 696.5 140.188Z" fill="#58C4DC"/>
<path fill-rule="evenodd" clip-rule="evenodd" d="M659.555 114.932C649.986 119.209 645.381 124.566 645.381 129.5C645.381 134.434 649.986 139.791 659.555 144.068C668.872 148.231 681.931 150.876 696.5 150.876C711.069 150.876 724.128 148.231 733.445 144.068C743.014 139.791 747.619 134.434 747.619 129.5C747.619 124.566 743.014 119.209 733.445 114.932C724.128 110.769 711.069 108.124 696.5 108.124C681.931 108.124 668.872 110.769 659.555 114.932ZM657.347 110.059C667.505 105.519 681.351 102.78 696.5 102.78C711.649 102.78 725.495 105.519 735.653 110.059C745.559 114.486 753 121.153 753 129.5C753 137.847 745.559 144.514 735.653 148.941C725.495 153.481 711.649 156.22 696.5 156.22C681.351 156.22 667.505 153.481 657.347 148.941C647.441 144.514 640 137.847 640 129.5C640 121.153 647.441 114.486 657.347 110.059Z" fill="#58C4DC"/>
<path fill-rule="evenodd" clip-rule="evenodd" d="M690.731 90.4411C682.217 84.3492 675.243 83.0672 670.94 85.5343C666.638 88.0014 664.269 94.6404 665.324 105.009C666.352 115.103 670.575 127.658 677.86 140.188C685.144 152.718 693.98 162.628 702.269 168.559C710.783 174.651 717.757 175.933 722.059 173.466C726.362 170.999 728.731 164.36 727.676 153.991C726.648 143.897 722.425 131.342 715.14 118.812C707.856 106.282 699.02 96.3722 690.731 90.4411ZM693.876 86.1053C702.915 92.5724 712.225 103.111 719.8 116.14C727.375 129.17 731.909 142.447 733.03 153.454C734.122 164.187 732.029 173.92 724.75 178.094C717.471 182.267 707.937 179.201 699.124 172.895C690.085 166.428 680.774 155.889 673.2 142.86C665.625 129.83 661.091 116.553 659.97 105.546C658.878 94.8129 660.971 85.0798 668.25 80.9064C675.529 76.7329 685.063 79.799 693.876 86.1053Z" fill="#58C4DC"/>
<path fill-rule="evenodd" clip-rule="evenodd" d="M727.676 105.009C728.731 94.6404 726.362 88.0014 722.06 85.5343C717.757 83.0672 710.783 84.3492 702.269 90.4411C693.98 96.3722 685.144 106.282 677.86 118.812C670.576 131.342 666.352 143.897 665.324 153.991C664.269 164.36 666.638 170.999 670.941 173.466C675.243 175.933 682.217 174.651 690.731 168.559C699.02 162.628 707.856 152.718 715.14 140.188C722.425 127.658 726.648 115.103 727.676 105.009ZM733.03 105.546C731.909 116.553 727.375 129.83 719.8 142.86C712.226 155.889 702.915 166.428 693.876 172.895C685.063 179.201 675.529 182.267 668.25 178.094C660.971 173.92 658.878 164.187 659.971 153.454C661.091 142.447 665.625 129.17 673.2 116.14C680.775 103.111 690.086 92.5724 699.124 86.1053C707.937 79.799 717.471 76.7329 724.75 80.9064C732.029 85.0798 734.122 94.8129 733.03 105.546Z" fill="#58C4DC"/>
</g>
<path d="M766.379 321.425C766.379 321.425 720.084 287.523 684.271 295.346L681.651 296.216C676.41 297.954 672.042 300.562 669.422 304.039L667.675 306.647L654.572 329.249L677.283 333.595C686.892 339.68 699.12 342.288 710.476 339.68L750.657 347.504L766.379 321.425Z" fill="#76B3E1"/>
<path opacity="0.3" d="M766.379 321.425C766.379 321.425 720.084 287.523 684.271 295.346L681.651 296.216C676.41 297.954 672.042 300.562 669.422 304.039L667.675 306.647L654.572 329.249L677.283 333.595C686.892 339.68 699.12 342.288 710.476 339.68L750.657 347.504L766.379 321.425Z" fill="url(#paint0_linear_10_2)"/>
<path d="M669.422 321.425L665.928 322.294C651.078 326.641 646.711 340.549 654.572 352.719C663.307 364.02 681.651 370.105 696.5 365.759L750.657 347.504C750.657 347.504 704.361 313.601 669.422 321.425Z" fill="#518AC8"/>
<path opacity="0.3" d="M669.422 321.425L665.928 322.294C651.078 326.641 646.711 340.549 654.572 352.719C663.307 364.02 681.651 370.105 696.5 365.759L750.657 347.504C750.657 347.504 704.361 313.601 669.422 321.425Z" fill="url(#paint1_linear_10_2)"/>
<path d="M741.048 360.543C736.158 354.463 729.555 349.974 722.085 347.651C714.616 345.328 706.62 345.276 699.121 347.504L644.964 364.889L627.494 395.314L725.325 411.831L742.795 380.536C746.289 374.451 745.416 367.497 741.048 360.543Z" fill="url(#paint2_linear_10_2)"/>
<path d="M723.578 390.968C718.688 384.888 712.085 380.399 704.616 378.076C697.146 375.753 689.15 375.701 681.651 377.929L627.494 395.314C627.494 395.314 673.789 430.086 709.602 421.393L712.223 420.523C727.072 416.177 732.313 402.268 723.578 390.968Z" fill="url(#paint3_linear_10_2)"/>
<path d="M943.851 308.807C931.353 290.921 906.67 285.619 888.824 296.989L857.488 316.966C853.252 319.629 849.619 323.146 846.821 327.294C844.022 331.441 842.12 336.126 841.236 341.051C839.741 349.344 841.056 357.9 844.971 365.362C842.288 369.432 840.458 374.003 839.591 378.8C838.699 383.823 838.818 388.974 839.942 393.95C841.066 398.927 843.173 403.628 846.138 407.78C858.635 425.669 883.32 430.972 901.164 419.598L932.507 399.622C936.742 396.958 940.373 393.44 943.171 389.293C945.968 385.146 947.869 380.46 948.751 375.537C950.249 367.244 948.938 358.688 945.026 351.224C947.708 347.154 949.536 342.583 950.402 337.787C951.296 332.764 951.178 327.613 950.054 322.637C948.93 317.66 946.823 312.959 943.857 308.807" fill="#FF3E00"/>
<path d="M885.762 409.463C880.83 410.746 875.622 410.483 870.844 408.712C866.065 406.94 861.945 403.745 859.04 399.558C857.257 397.062 855.991 394.235 855.315 391.243C854.639 388.251 854.567 385.154 855.104 382.134C855.285 381.142 855.535 380.165 855.852 379.208L856.442 377.405L858.049 378.584C861.756 381.31 865.901 383.382 870.306 384.713L871.47 385.066L871.363 386.229C871.222 387.882 871.67 389.532 872.629 390.886C873.504 392.148 874.745 393.111 876.185 393.645C877.625 394.179 879.194 394.258 880.68 393.872C881.36 393.691 882.008 393.407 882.603 393.031L913.945 373.051C914.712 372.569 915.37 371.931 915.877 371.18C916.384 370.429 916.729 369.58 916.89 368.688C917.051 367.778 917.029 366.844 916.825 365.942C916.621 365.041 916.24 364.188 915.703 363.436C914.828 362.173 913.587 361.21 912.147 360.676C910.707 360.141 909.138 360.061 907.652 360.447C906.972 360.628 906.323 360.912 905.729 361.288L893.769 368.913C891.8 370.163 889.653 371.106 887.4 371.708C882.467 372.99 877.26 372.728 872.482 370.957C867.703 369.185 863.583 365.99 860.678 361.803C858.895 359.307 857.628 356.48 856.952 353.488C856.275 350.496 856.204 347.399 856.74 344.378C857.273 341.417 858.418 338.6 860.101 336.106C861.785 333.613 863.971 331.499 866.518 329.898L897.864 309.923C899.832 308.67 901.98 307.727 904.233 307.124C909.165 305.842 914.372 306.104 919.151 307.876C923.93 309.647 928.05 312.842 930.955 317.029C932.738 319.525 934.004 322.352 934.681 325.344C935.357 328.336 935.429 331.433 934.892 334.454C934.709 335.445 934.459 336.423 934.143 337.38L933.553 339.182L931.947 338.006C928.24 335.28 924.095 333.207 919.69 331.877L918.524 331.524L918.633 330.361C918.774 328.707 918.326 327.056 917.368 325.701C916.494 324.438 915.252 323.475 913.812 322.941C912.373 322.407 910.803 322.328 909.317 322.714C908.637 322.895 907.989 323.179 907.395 323.556L876.044 343.536C875.277 344.018 874.619 344.655 874.113 345.407C873.606 346.158 873.261 347.006 873.101 347.898C872.94 348.808 872.961 349.742 873.165 350.644C873.368 351.546 873.749 352.399 874.286 353.152C875.161 354.414 876.402 355.377 877.842 355.912C879.282 356.446 880.851 356.526 882.337 356.14C883.017 355.959 883.665 355.675 884.26 355.299L896.219 347.678C898.186 346.425 900.334 345.482 902.588 344.881C907.52 343.598 912.727 343.861 917.505 345.632C922.284 347.403 926.404 350.599 929.308 354.786C931.092 357.282 932.359 360.109 933.035 363.101C933.711 366.093 933.783 369.19 933.246 372.21C932.715 375.171 931.571 377.989 929.889 380.483C928.207 382.977 926.023 385.093 923.477 386.695L892.131 406.665C890.163 407.917 888.015 408.861 885.762 409.463Z" fill="white"/>
<path d="M803.818 171L742 193.045L751.429 274.783L803.818 303.8L856.208 274.783L865.637 193.045L803.818 171Z" fill="#DD0031"/>
<path d="M803.818 171V185.741V185.674V252.938V303.8L856.208 274.783L865.637 193.045L803.818 171Z" fill="#C3002F"/>
<path d="M803.818 185.674L765.174 272.326H779.582L787.351 252.938H820.153L827.922 272.326H842.33L803.818 185.674ZM815.106 240.986H792.53L803.818 213.828L815.106 240.986Z" fill="white"/>
</g>
<defs>
<linearGradient id="paint0_linear_10_2" x1="648.021" y1="293.608" x2="756.57" y2="346.612" gradientUnits="userSpaceOnUse">
<stop offset="0.1" stop-color="#76B3E1"/>
<stop offset="0.3" stop-color="#DCF2FD"/>
<stop offset="1" stop-color="#76B3E1"/>
</linearGradient>
<linearGradient id="paint1_linear_10_2" x1="707.681" y1="319.339" x2="688.807" y2="382.499" gradientUnits="userSpaceOnUse">
<stop stop-color="#76B3E1"/>
<stop offset="0.5" stop-color="#4377BB"/>
<stop offset="1" stop-color="#1F3B77"/>
</linearGradient>
<linearGradient id="paint2_linear_10_2" x1="640.072" y1="346.808" x2="749.709" y2="421.711" gradientUnits="userSpaceOnUse">
<stop stop-color="#315AA9"/>
<stop offset="0.5" stop-color="#518AC8"/>
<stop offset="1" stop-color="#315AA9"/>
</linearGradient>
<linearGradient id="paint3_linear_10_2" x1="689.687" y1="355.762" x2="645.711" y2="517.817" gradientUnits="userSpaceOnUse">
<stop stop-color="#4377BB"/>
<stop offset="0.5" stop-color="#1A336B"/>
<stop offset="1" stop-color="#1A336B"/>
</linearGradient>
<clipPath id="clip0_10_2">
<rect width="1000" height="500" rx="20" fill="white"/>
</clipPath>
<clipPath id="clip1_10_2">
<rect width="113" height="101" fill="white" transform="translate(640 79)"/>
</clipPath>
</defs>
</svg>
