<svg width="1000" height="500" viewBox="0 0 1000 500" fill="none" xmlns="http://www.w3.org/2000/svg">
<g clip-path="url(#clip0_10_2)">
<rect width="1000" height="500" rx="20" fill="#263538"/>
<path d="M0 0H518.5L453.5 500H0V0Z" fill="#FF3D00"/>
<path d="M355.586 269.543L348.384 269.986C348.261 269.37 347.997 268.816 347.59 268.324C347.184 267.819 346.649 267.419 345.984 267.124C345.331 266.816 344.55 266.662 343.639 266.662C342.42 266.662 341.392 266.92 340.555 267.437C339.718 267.942 339.299 268.619 339.299 269.469C339.299 270.146 339.57 270.718 340.112 271.186C340.653 271.654 341.583 272.029 342.9 272.312L348.034 273.347C350.791 273.913 352.847 274.824 354.201 276.08C355.555 277.335 356.233 278.985 356.233 281.028C356.233 282.887 355.685 284.518 354.589 285.922C353.506 287.325 352.016 288.421 350.12 289.209C348.237 289.984 346.064 290.372 343.602 290.372C339.847 290.372 336.856 289.59 334.627 288.027C332.411 286.451 331.113 284.309 330.731 281.601L338.468 281.195C338.702 282.339 339.269 283.214 340.167 283.817C341.066 284.408 342.217 284.703 343.62 284.703C344.999 284.703 346.107 284.438 346.944 283.909C347.794 283.367 348.224 282.672 348.237 281.822C348.224 281.108 347.923 280.524 347.332 280.068C346.741 279.6 345.83 279.243 344.599 278.997L339.687 278.018C336.917 277.464 334.855 276.504 333.501 275.138C332.159 273.771 331.488 272.029 331.488 269.912C331.488 268.09 331.981 266.52 332.965 265.203C333.963 263.886 335.36 262.87 337.157 262.156C338.967 261.442 341.084 261.085 343.509 261.085C347.092 261.085 349.911 261.842 351.967 263.357C354.035 264.871 355.242 266.933 355.586 269.543Z" fill="white"/>
<path d="M327.218 261.455V267.364H310.137V261.455H327.218ZM314.015 254.659H321.881V281.102C321.881 281.829 321.992 282.395 322.214 282.801C322.435 283.195 322.743 283.472 323.137 283.632C323.543 283.792 324.011 283.872 324.54 283.872C324.91 283.872 325.279 283.841 325.648 283.78C326.018 283.706 326.301 283.651 326.498 283.614L327.735 289.467C327.341 289.59 326.787 289.732 326.073 289.892C325.359 290.064 324.491 290.169 323.469 290.206C321.573 290.28 319.912 290.027 318.484 289.449C317.068 288.87 315.966 287.972 315.178 286.753C314.39 285.534 314.002 283.995 314.015 282.136V254.659Z" fill="white"/>
<path d="M287.65 273.42V289.818H279.784V261.455H287.281V266.459H287.613C288.241 264.809 289.294 263.504 290.771 262.544C292.248 261.571 294.039 261.085 296.144 261.085C298.114 261.085 299.832 261.516 301.296 262.378C302.761 263.24 303.9 264.471 304.713 266.071C305.525 267.659 305.931 269.555 305.931 271.758V289.818H298.065V273.162C298.077 271.426 297.634 270.072 296.735 269.099C295.837 268.115 294.6 267.622 293.024 267.622C291.965 267.622 291.029 267.85 290.217 268.305C289.417 268.761 288.789 269.426 288.333 270.3C287.89 271.161 287.662 272.202 287.65 273.42Z" fill="white"/>
<path d="M261.632 290.372C258.714 290.372 256.203 289.781 254.098 288.599C252.005 287.405 250.392 285.719 249.26 283.54C248.127 281.348 247.561 278.757 247.561 275.766C247.561 272.848 248.127 270.287 249.26 268.084C250.392 265.88 251.986 264.163 254.042 262.932C256.11 261.701 258.536 261.085 261.318 261.085C263.189 261.085 264.931 261.387 266.544 261.99C268.169 262.581 269.584 263.473 270.791 264.668C272.01 265.862 272.957 267.364 273.635 269.173C274.312 270.971 274.65 273.076 274.65 275.489V277.649H250.7V272.774H267.245C267.245 271.642 266.999 270.638 266.507 269.764C266.014 268.89 265.331 268.207 264.457 267.714C263.595 267.21 262.592 266.957 261.447 266.957C260.253 266.957 259.194 267.234 258.271 267.788C257.36 268.33 256.646 269.062 256.129 269.986C255.612 270.897 255.347 271.912 255.335 273.033V277.668C255.335 279.071 255.593 280.284 256.11 281.305C256.64 282.327 257.385 283.115 258.345 283.669C259.305 284.223 260.444 284.5 261.761 284.5C262.635 284.5 263.435 284.377 264.162 284.131C264.888 283.884 265.51 283.515 266.027 283.023C266.544 282.53 266.938 281.927 267.208 281.213L274.484 281.693C274.115 283.441 273.358 284.968 272.213 286.273C271.08 287.565 269.615 288.575 267.818 289.301C266.033 290.015 263.971 290.372 261.632 290.372Z" fill="white"/>
<path d="M224.224 273.42V289.818H216.358V261.455H223.855V266.459H224.187C224.815 264.809 225.868 263.504 227.345 262.544C228.822 261.571 230.614 261.085 232.719 261.085C234.688 261.085 236.406 261.516 237.871 262.378C239.336 263.24 240.474 264.471 241.287 266.071C242.099 267.659 242.506 269.555 242.506 271.758V289.818H234.639V273.162C234.651 271.426 234.208 270.072 233.31 269.099C232.411 268.115 231.174 267.622 229.598 267.622C228.539 267.622 227.604 267.85 226.791 268.305C225.991 268.761 225.363 269.426 224.908 270.3C224.464 271.161 224.237 272.202 224.224 273.42Z" fill="white"/>
<path d="M197.283 290.372C194.414 290.372 191.934 289.763 189.841 288.544C187.76 287.313 186.154 285.602 185.021 283.41C183.889 281.207 183.322 278.652 183.322 275.747C183.322 272.817 183.889 270.257 185.021 268.065C186.154 265.862 187.76 264.151 189.841 262.932C191.934 261.701 194.414 261.085 197.283 261.085C200.151 261.085 202.625 261.701 204.706 262.932C206.799 264.151 208.411 265.862 209.544 268.065C210.677 270.257 211.243 272.817 211.243 275.747C211.243 278.652 210.677 281.207 209.544 283.41C208.411 285.602 206.799 287.313 204.706 288.544C202.625 289.763 200.151 290.372 197.283 290.372ZM197.32 284.278C198.624 284.278 199.714 283.909 200.588 283.17C201.462 282.419 202.121 281.398 202.564 280.105C203.019 278.812 203.247 277.341 203.247 275.692C203.247 274.042 203.019 272.571 202.564 271.278C202.121 269.986 201.462 268.964 200.588 268.213C199.714 267.462 198.624 267.087 197.32 267.087C196.002 267.087 194.894 267.462 193.996 268.213C193.109 268.964 192.438 269.986 191.983 271.278C191.54 272.571 191.318 274.042 191.318 275.692C191.318 277.341 191.54 278.812 191.983 280.105C192.438 281.398 193.109 282.419 193.996 283.17C194.894 283.909 196.002 284.278 197.32 284.278Z" fill="white"/>
<path d="M151.561 300.455V261.455H159.317V266.219H159.668C160.012 265.455 160.511 264.68 161.163 263.892C161.828 263.092 162.69 262.427 163.749 261.898C164.82 261.356 166.149 261.085 167.737 261.085C169.805 261.085 171.714 261.627 173.462 262.71C175.21 263.781 176.607 265.4 177.653 267.567C178.7 269.721 179.223 272.423 179.223 275.673C179.223 278.837 178.712 281.509 177.69 283.687C176.681 285.854 175.302 287.498 173.554 288.618C171.818 289.726 169.873 290.28 167.719 290.28C166.192 290.28 164.893 290.027 163.822 289.523C162.764 289.018 161.896 288.384 161.219 287.621C160.542 286.845 160.025 286.063 159.668 285.276H159.428V300.455H151.561ZM159.261 275.636C159.261 277.323 159.495 278.794 159.963 280.05C160.431 281.305 161.108 282.284 161.994 282.986C162.881 283.675 163.958 284.02 165.226 284.02C166.506 284.02 167.589 283.669 168.476 282.967C169.362 282.253 170.033 281.268 170.489 280.013C170.956 278.745 171.19 277.286 171.19 275.636C171.19 273.999 170.963 272.559 170.507 271.315C170.052 270.072 169.381 269.099 168.494 268.398C167.608 267.696 166.518 267.345 165.226 267.345C163.945 267.345 162.862 267.684 161.976 268.361C161.102 269.038 160.431 269.998 159.963 271.241C159.495 272.485 159.261 273.95 159.261 275.636Z" fill="white"/>
<path d="M104.131 289.818V261.455H111.629V266.459H111.961C112.552 264.797 113.537 263.486 114.915 262.526C116.294 261.565 117.944 261.085 119.864 261.085C121.809 261.085 123.465 261.571 124.832 262.544C126.198 263.504 127.109 264.809 127.565 266.459H127.86C128.439 264.834 129.485 263.535 130.999 262.562C132.526 261.578 134.329 261.085 136.41 261.085C139.057 261.085 141.205 261.928 142.854 263.615C144.516 265.289 145.347 267.665 145.347 270.743V289.818H137.499V272.294C137.499 270.718 137.081 269.536 136.244 268.749C135.406 267.961 134.36 267.567 133.104 267.567C131.676 267.567 130.562 268.022 129.762 268.933C128.962 269.832 128.562 271.02 128.562 272.497V289.818H120.935V272.128C120.935 270.737 120.535 269.629 119.735 268.804C118.947 267.979 117.907 267.567 116.614 267.567C115.74 267.567 114.952 267.788 114.251 268.232C113.561 268.662 113.013 269.272 112.607 270.06C112.201 270.835 111.998 271.746 111.998 272.793V289.818H104.131Z" fill="white"/>
<path d="M85.056 290.372C82.1877 290.372 79.7071 289.763 77.6143 288.544C75.5338 287.313 73.9273 285.602 72.7947 283.41C71.6621 281.207 71.0958 278.652 71.0958 275.747C71.0958 272.817 71.6621 270.257 72.7947 268.065C73.9273 265.862 75.5338 264.151 77.6143 262.932C79.7071 261.701 82.1877 261.085 85.056 261.085C87.9244 261.085 90.3989 261.701 92.4793 262.932C94.5721 264.151 96.1848 265.862 97.3174 268.065C98.45 270.257 99.0163 272.817 99.0163 275.747C99.0163 278.652 98.45 281.207 97.3174 283.41C96.1848 285.602 94.5721 287.313 92.4793 288.544C90.3989 289.763 87.9244 290.372 85.056 290.372ZM85.093 284.278C86.3979 284.278 87.4874 283.909 88.3615 283.17C89.2355 282.419 89.8941 281.398 90.3373 280.105C90.7928 278.812 91.0205 277.341 91.0205 275.692C91.0205 274.042 90.7928 272.571 90.3373 271.278C89.8941 269.986 89.2355 268.964 88.3615 268.213C87.4874 267.462 86.3979 267.087 85.093 267.087C83.7757 267.087 82.6678 267.462 81.7691 268.213C80.8828 268.964 80.2118 269.986 79.7563 271.278C79.3132 272.571 79.0916 274.042 79.0916 275.692C79.0916 277.341 79.3132 278.812 79.7563 280.105C80.2118 281.398 80.8828 282.419 81.7691 283.17C82.6678 283.909 83.7757 284.278 85.093 284.278Z" fill="white"/>
<path d="M66.6547 265.24H58.5667C58.4189 264.194 58.1173 263.264 57.6618 262.452C57.2064 261.627 56.6216 260.925 55.9076 260.347C55.1936 259.768 54.3688 259.325 53.4332 259.017C52.5099 258.709 51.5065 258.555 50.4232 258.555C48.4658 258.555 46.7608 259.042 45.3082 260.014C43.8555 260.974 42.7291 262.378 41.9289 264.224C41.1287 266.059 40.7286 268.287 40.7286 270.909C40.7286 273.605 41.1287 275.87 41.9289 277.705C42.7414 279.539 43.874 280.924 45.3266 281.859C46.7793 282.795 48.4597 283.263 50.3678 283.263C51.4388 283.263 52.4298 283.121 53.3408 282.838C54.2641 282.555 55.0828 282.143 55.7968 281.601C56.5108 281.047 57.1017 280.376 57.5695 279.588C58.0496 278.8 58.382 277.901 58.5667 276.892L66.6547 276.929C66.4455 278.665 65.9223 280.339 65.0851 281.952C64.2603 283.552 63.1462 284.986 61.7428 286.254C60.3517 287.51 58.6898 288.507 56.757 289.246C54.8366 289.972 52.6637 290.335 50.2385 290.335C46.8654 290.335 43.8493 289.572 41.1903 288.045C38.5435 286.519 36.4507 284.309 34.9118 281.416C33.3853 278.523 32.6221 275.021 32.6221 270.909C32.6221 266.785 33.3976 263.276 34.9488 260.384C36.4999 257.491 38.605 255.287 41.2641 253.773C43.9232 252.246 46.9147 251.483 50.2385 251.483C52.4298 251.483 54.4611 251.791 56.3323 252.406C58.2158 253.022 59.8839 253.92 61.3366 255.102C62.7892 256.272 63.971 257.706 64.882 259.405C65.8053 261.104 66.3962 263.049 66.6547 265.24Z" fill="white"/>
<path d="M115.197 237.818V200H123.063V214.219H123.304C123.648 213.455 124.147 212.68 124.799 211.892C125.464 211.092 126.326 210.427 127.385 209.898C128.456 209.356 129.785 209.085 131.373 209.085C133.441 209.085 135.349 209.627 137.098 210.71C138.846 211.781 140.243 213.4 141.289 215.567C142.336 217.721 142.859 220.423 142.859 223.673C142.859 226.837 142.348 229.509 141.326 231.688C140.317 233.854 138.938 235.498 137.19 236.618C135.454 237.726 133.509 238.28 131.355 238.28C129.828 238.28 128.529 238.027 127.458 237.523C126.4 237.018 125.532 236.384 124.855 235.621C124.178 234.845 123.661 234.063 123.304 233.276H122.953V237.818H115.197ZM122.897 223.636C122.897 225.323 123.131 226.794 123.599 228.05C124.067 229.305 124.744 230.284 125.63 230.986C126.517 231.675 127.594 232.02 128.862 232.02C130.142 232.02 131.225 231.669 132.112 230.967C132.998 230.253 133.669 229.268 134.125 228.013C134.592 226.745 134.826 225.286 134.826 223.636C134.826 221.999 134.599 220.559 134.143 219.315C133.688 218.072 133.017 217.099 132.13 216.398C131.244 215.696 130.154 215.345 128.862 215.345C127.581 215.345 126.498 215.684 125.612 216.361C124.738 217.038 124.067 217.998 123.599 219.241C123.131 220.485 122.897 221.95 122.897 223.636Z" fill="white"/>
<path d="M96.8973 238.372C93.9797 238.372 91.4683 237.781 89.3632 236.599C87.2704 235.405 85.6577 233.719 84.5252 231.54C83.3926 229.348 82.8263 226.757 82.8263 223.766C82.8263 220.848 83.3926 218.287 84.5252 216.084C85.6577 213.88 87.252 212.163 89.3078 210.932C91.376 209.701 93.8012 209.085 96.5834 209.085C98.4546 209.085 100.197 209.387 101.809 209.99C103.434 210.581 104.85 211.473 106.056 212.668C107.275 213.862 108.223 215.364 108.9 217.173C109.577 218.971 109.916 221.076 109.916 223.489V225.649H85.9655V220.774H102.511C102.511 219.642 102.265 218.638 101.772 217.764C101.28 216.89 100.597 216.207 99.7226 215.714C98.8609 215.21 97.8575 214.957 96.7127 214.957C95.5185 214.957 94.4598 215.234 93.5365 215.788C92.6255 216.33 91.9115 217.062 91.3945 217.986C90.8774 218.897 90.6128 219.912 90.6004 221.033V225.668C90.6004 227.071 90.859 228.284 91.376 229.305C91.9054 230.327 92.6502 231.115 93.6104 231.669C94.5706 232.223 95.7093 232.5 97.0266 232.5C97.9006 232.5 98.7008 232.377 99.4271 232.131C100.153 231.884 100.775 231.515 101.292 231.023C101.809 230.53 102.203 229.927 102.474 229.213L109.75 229.693C109.38 231.441 108.623 232.968 107.478 234.273C106.346 235.565 104.881 236.575 103.083 237.301C101.298 238.015 99.2363 238.372 96.8973 238.372Z" fill="white"/>
<path d="M41.7997 237.818L30.9786 200H39.713L45.973 226.277H46.2869L53.1931 200H60.6718L67.5596 226.332H67.892L74.1519 200H82.8863L72.0653 237.818H64.2727L57.071 213.092H56.7755L49.5923 237.818H41.7997Z" fill="white"/>
<circle cx="500" cy="250" r="105" fill="white"/>
<path d="M581.24 266.643C578.869 267.279 576.615 266.989 574.478 265.773C572.362 264.552 570.998 262.753 570.384 260.376C569.739 258.055 570.03 255.847 571.257 253.754C572.5 251.632 574.307 250.254 576.678 249.619C578.918 249.019 581.117 249.324 583.276 250.533C585.452 251.715 586.862 253.467 587.508 255.788C587.909 257.374 587.877 258.924 587.412 260.437C586.969 261.944 586.203 263.255 585.113 264.37C584.046 265.48 582.755 266.237 581.24 266.643Z" fill="#222222"/>
<path d="M534.513 227.529C533.646 225.173 532.167 223.558 530.074 222.684C527.997 221.782 525.366 221.757 522.183 222.61C520.076 223.174 518.393 223.919 517.135 224.845C515.877 225.77 515.026 226.81 514.583 227.964C514.133 229.096 514.062 230.28 514.37 231.515C514.596 232.537 515.032 233.373 515.677 234.024C516.344 234.668 517.185 235.172 518.2 235.536C519.231 235.871 520.42 236.094 521.767 236.203C523.114 236.313 524.6 236.327 526.225 236.244L532.373 236.009C535.904 235.839 539.105 236.017 541.975 236.542C544.867 237.061 547.403 237.922 549.585 239.126C551.788 240.324 553.631 241.889 555.113 243.821C556.596 245.753 557.71 248.066 558.455 250.761C559.574 255.025 559.478 258.969 558.166 262.591C556.855 266.213 554.419 269.371 550.858 272.067C547.32 274.756 542.741 276.853 537.121 278.359C531.479 279.871 526.335 280.343 521.69 279.776C517.044 279.21 513.095 277.515 509.845 274.691C506.594 271.868 504.23 267.831 502.753 262.58L518.361 258.398C519.075 260.536 520.142 262.191 521.562 263.364C522.982 264.536 524.692 265.254 526.692 265.518C528.715 265.777 530.922 265.585 533.315 264.944C535.51 264.356 537.297 263.559 538.675 262.555C540.074 261.545 541.05 260.401 541.602 259.123C542.154 257.846 542.259 256.524 541.916 255.157C541.553 253.89 540.866 252.909 539.857 252.215C538.841 251.499 537.444 251.026 535.665 250.797C533.902 250.54 531.715 250.455 529.103 250.543L521.615 250.785C515.417 251.011 510.238 250.081 506.08 247.995C501.915 245.887 499.158 242.273 497.81 237.152C496.67 232.987 496.81 229.032 498.23 225.287C499.65 221.542 502.123 218.256 505.648 215.429C509.172 212.602 513.492 210.503 518.607 209.133C523.832 207.733 528.604 207.407 532.922 208.156C537.256 208.877 540.915 210.544 543.897 213.156C546.879 215.769 548.954 219.166 550.122 223.347L534.513 227.529Z" fill="#222222"/>
<path d="M436.416 232.144L464.733 277.497L465.293 277.347L467.139 223.912L485.382 219.024L480.698 292.56L458.998 298.375L418.173 237.032L436.416 232.144Z" fill="#222222"/>
<path d="M887.719 102.594L875 124.422L862.281 102.594H820L875 197.125L930 102.594H887.719Z" fill="#42B883"/>
<path d="M887.719 102.594L875 124.422L862.281 102.594H842L875 159.312L908 102.594H887.719Z" fill="#35495E"/>
<g clip-path="url(#clip1_10_2)">
<path d="M716.5 160.188C722.444 160.188 727.262 155.403 727.262 149.5C727.262 143.597 722.444 138.812 716.5 138.812C710.556 138.812 705.738 143.597 705.738 149.5C705.738 155.403 710.556 160.188 716.5 160.188Z" fill="#58C4DC"/>
<path fill-rule="evenodd" clip-rule="evenodd" d="M679.555 134.932C669.986 139.209 665.381 144.566 665.381 149.5C665.381 154.434 669.986 159.791 679.555 164.068C688.872 168.231 701.931 170.876 716.5 170.876C731.069 170.876 744.128 168.231 753.445 164.068C763.014 159.791 767.619 154.434 767.619 149.5C767.619 144.566 763.014 139.209 753.445 134.932C744.128 130.769 731.069 128.124 716.5 128.124C701.931 128.124 688.872 130.769 679.555 134.932ZM677.347 130.059C687.505 125.519 701.351 122.78 716.5 122.78C731.649 122.78 745.495 125.519 755.653 130.059C765.559 134.486 773 141.153 773 149.5C773 157.847 765.559 164.514 755.653 168.941C745.495 173.481 731.649 176.22 716.5 176.22C701.351 176.22 687.505 173.481 677.347 168.941C667.441 164.514 660 157.847 660 149.5C660 141.153 667.441 134.486 677.347 130.059Z" fill="#58C4DC"/>
<path fill-rule="evenodd" clip-rule="evenodd" d="M710.731 110.441C702.217 104.349 695.243 103.067 690.94 105.534C686.638 108.001 684.269 114.64 685.324 125.009C686.352 135.103 690.575 147.658 697.86 160.188C705.144 172.718 713.98 182.628 722.269 188.559C730.783 194.651 737.757 195.933 742.059 193.466C746.362 190.999 748.731 184.36 747.676 173.991C746.648 163.897 742.425 151.342 735.14 138.812C727.856 126.282 719.02 116.372 710.731 110.441ZM713.876 106.105C722.915 112.572 732.225 123.111 739.8 136.14C747.375 149.17 751.909 162.447 753.03 173.454C754.122 184.187 752.029 193.92 744.75 198.094C737.471 202.267 727.937 199.201 719.124 192.895C710.085 186.428 700.774 175.889 693.2 162.86C685.625 149.83 681.091 136.553 679.97 125.546C678.878 114.813 680.971 105.08 688.25 100.906C695.529 96.7329 705.063 99.799 713.876 106.105Z" fill="#58C4DC"/>
<path fill-rule="evenodd" clip-rule="evenodd" d="M747.676 125.009C748.731 114.64 746.362 108.001 742.06 105.534C737.757 103.067 730.783 104.349 722.269 110.441C713.98 116.372 705.144 126.282 697.86 138.812C690.576 151.342 686.352 163.897 685.324 173.991C684.269 184.36 686.638 190.999 690.941 193.466C695.243 195.933 702.217 194.651 710.731 188.559C719.02 182.628 727.856 172.718 735.14 160.188C742.425 147.658 746.648 135.103 747.676 125.009ZM753.03 125.546C751.909 136.553 747.375 149.83 739.8 162.86C732.226 175.889 722.915 186.428 713.876 192.895C705.063 199.201 695.529 202.267 688.25 198.094C680.971 193.92 678.878 184.187 679.971 173.454C681.091 162.447 685.625 149.17 693.2 136.14C700.775 123.111 710.086 112.572 719.124 106.105C727.937 99.799 737.471 96.7329 744.75 100.906C752.029 105.08 754.122 114.813 753.03 125.546Z" fill="#58C4DC"/>
</g>
<path d="M786.379 301.425C786.379 301.425 740.084 267.523 704.271 275.346L701.651 276.216C696.41 277.954 692.042 280.562 689.422 284.039L687.675 286.647L674.572 309.249L697.283 313.595C706.892 319.68 719.12 322.288 730.476 319.68L770.657 327.504L786.379 301.425Z" fill="#76B3E1"/>
<path opacity="0.3" d="M786.379 301.425C786.379 301.425 740.084 267.523 704.271 275.346L701.651 276.216C696.41 277.954 692.042 280.562 689.422 284.039L687.675 286.647L674.572 309.249L697.283 313.595C706.892 319.68 719.12 322.288 730.476 319.68L770.657 327.504L786.379 301.425Z" fill="url(#paint0_linear_10_2)"/>
<path d="M689.422 301.425L685.928 302.294C671.078 306.641 666.711 320.549 674.572 332.719C683.307 344.02 701.651 350.105 716.5 345.759L770.657 327.504C770.657 327.504 724.361 293.601 689.422 301.425Z" fill="#518AC8"/>
<path opacity="0.3" d="M689.422 301.425L685.928 302.294C671.078 306.641 666.711 320.549 674.572 332.719C683.307 344.02 701.651 350.105 716.5 345.759L770.657 327.504C770.657 327.504 724.361 293.601 689.422 301.425Z" fill="url(#paint1_linear_10_2)"/>
<path d="M761.048 340.543C756.158 334.463 749.555 329.974 742.085 327.651C734.616 325.328 726.62 325.276 719.121 327.504L664.964 344.889L647.494 375.314L745.325 391.831L762.795 360.536C766.289 354.451 765.416 347.497 761.048 340.543Z" fill="url(#paint2_linear_10_2)"/>
<path d="M743.578 370.968C738.688 364.888 732.085 360.399 724.616 358.076C717.146 355.753 709.15 355.701 701.651 357.929L647.494 375.314C647.494 375.314 693.789 410.086 729.602 401.393L732.223 400.523C747.072 396.177 752.313 382.268 743.578 370.968Z" fill="url(#paint3_linear_10_2)"/>
<path d="M923.851 288.807C911.353 270.921 886.67 265.619 868.824 276.989L837.488 296.966C833.252 299.629 829.619 303.146 826.821 307.294C824.022 311.441 822.12 316.126 821.236 321.051C819.741 329.344 821.056 337.9 824.971 345.362C822.288 349.432 820.458 354.003 819.591 358.8C818.699 363.823 818.818 368.974 819.942 373.95C821.066 378.927 823.173 383.628 826.138 387.78C838.635 405.669 863.32 410.972 881.164 399.598L912.507 379.622C916.742 376.958 920.373 373.44 923.171 369.293C925.968 365.146 927.869 360.46 928.751 355.537C930.249 347.244 928.938 338.688 925.026 331.224C927.708 327.154 929.536 322.583 930.402 317.787C931.296 312.764 931.178 307.613 930.054 302.637C928.93 297.66 926.823 292.959 923.857 288.807" fill="#FF3E00"/>
<path d="M865.762 389.463C860.83 390.746 855.622 390.483 850.844 388.712C846.065 386.94 841.945 383.745 839.04 379.558C837.257 377.062 835.991 374.235 835.315 371.243C834.639 368.251 834.567 365.154 835.104 362.134C835.285 361.142 835.535 360.165 835.852 359.208L836.442 357.405L838.049 358.584C841.756 361.31 845.901 363.382 850.306 364.713L851.47 365.066L851.363 366.229C851.222 367.882 851.67 369.532 852.629 370.886C853.504 372.148 854.745 373.111 856.185 373.645C857.625 374.179 859.194 374.258 860.68 373.872C861.36 373.691 862.008 373.407 862.603 373.031L893.945 353.051C894.712 352.569 895.37 351.931 895.877 351.18C896.384 350.429 896.729 349.58 896.89 348.688C897.051 347.778 897.029 346.844 896.825 345.942C896.621 345.041 896.24 344.188 895.703 343.436C894.828 342.173 893.587 341.21 892.147 340.676C890.707 340.141 889.138 340.061 887.652 340.447C886.972 340.628 886.323 340.912 885.729 341.288L873.769 348.913C871.8 350.163 869.653 351.106 867.4 351.708C862.467 352.99 857.26 352.728 852.482 350.957C847.703 349.185 843.583 345.99 840.678 341.803C838.895 339.307 837.628 336.48 836.952 333.488C836.275 330.496 836.204 327.399 836.74 324.378C837.273 321.417 838.418 318.6 840.101 316.106C841.785 313.613 843.971 311.499 846.518 309.898L877.864 289.923C879.832 288.67 881.98 287.727 884.233 287.124C889.165 285.842 894.372 286.104 899.151 287.876C903.93 289.647 908.05 292.842 910.955 297.029C912.738 299.525 914.004 302.352 914.681 305.344C915.357 308.336 915.429 311.433 914.892 314.454C914.709 315.445 914.459 316.423 914.143 317.38L913.553 319.182L911.947 318.006C908.24 315.28 904.095 313.207 899.69 311.877L898.524 311.524L898.633 310.361C898.774 308.707 898.326 307.056 897.368 305.701C896.494 304.438 895.252 303.475 893.812 302.941C892.373 302.407 890.803 302.328 889.317 302.714C888.637 302.895 887.989 303.179 887.395 303.556L856.044 323.536C855.277 324.018 854.619 324.655 854.113 325.407C853.606 326.158 853.261 327.006 853.101 327.898C852.94 328.808 852.961 329.742 853.165 330.644C853.368 331.546 853.749 332.399 854.286 333.152C855.161 334.414 856.402 335.377 857.842 335.912C859.282 336.446 860.851 336.526 862.337 336.14C863.017 335.959 863.665 335.675 864.26 335.299L876.219 327.678C878.186 326.425 880.334 325.482 882.588 324.881C887.52 323.598 892.727 323.861 897.505 325.632C902.284 327.403 906.404 330.599 909.308 334.786C911.092 337.282 912.359 340.109 913.035 343.101C913.711 346.093 913.783 349.19 913.246 352.21C912.715 355.171 911.571 357.989 909.889 360.483C908.207 362.977 906.023 365.093 903.477 366.695L872.131 386.665C870.163 387.917 868.015 388.861 865.762 389.463Z" fill="white"/>
</g>
<defs>
<linearGradient id="paint0_linear_10_2" x1="668.021" y1="273.608" x2="776.57" y2="326.612" gradientUnits="userSpaceOnUse">
<stop offset="0.1" stop-color="#76B3E1"/>
<stop offset="0.3" stop-color="#DCF2FD"/>
<stop offset="1" stop-color="#76B3E1"/>
</linearGradient>
<linearGradient id="paint1_linear_10_2" x1="727.681" y1="299.339" x2="708.807" y2="362.499" gradientUnits="userSpaceOnUse">
<stop stop-color="#76B3E1"/>
<stop offset="0.5" stop-color="#4377BB"/>
<stop offset="1" stop-color="#1F3B77"/>
</linearGradient>
<linearGradient id="paint2_linear_10_2" x1="660.072" y1="326.808" x2="769.709" y2="401.711" gradientUnits="userSpaceOnUse">
<stop stop-color="#315AA9"/>
<stop offset="0.5" stop-color="#518AC8"/>
<stop offset="1" stop-color="#315AA9"/>
</linearGradient>
<linearGradient id="paint3_linear_10_2" x1="709.687" y1="335.762" x2="665.711" y2="497.817" gradientUnits="userSpaceOnUse">
<stop stop-color="#4377BB"/>
<stop offset="0.5" stop-color="#1A336B"/>
<stop offset="1" stop-color="#1A336B"/>
</linearGradient>
<clipPath id="clip0_10_2">
<rect width="1000" height="500" rx="20" fill="white"/>
</clipPath>
<clipPath id="clip1_10_2">
<rect width="113" height="101" fill="white" transform="translate(660 99)"/>
</clipPath>
</defs>
</svg>
