<svg xmlns="http://www.w3.org/2000/svg" width="1000" height="500" fill="none"><g clip-path="url(#a)"><rect width="1000" height="500" fill="#263538" rx="20"/><path fill="#FF3D00" d="M0 0h518.5l-65 500H0z"/><path fill="#fff" d="m355.586 269.543-7.202.443a3.7 3.7 0 0 0-.794-1.662q-.609-.757-1.606-1.2-.979-.462-2.345-.462-1.829 0-3.084.775-1.256.757-1.256 2.032 0 1.015.813 1.717t2.788 1.126l5.134 1.035q4.136.849 6.167 2.733 2.031 1.883 2.032 4.948 0 2.788-1.644 4.894-1.625 2.105-4.469 3.287-2.825 1.163-6.518 1.163-5.632 0-8.975-2.345-3.324-2.364-3.896-6.426l7.737-.406q.351 1.717 1.699 2.622 1.349.886 3.453.886 2.069 0 3.324-.794 1.274-.812 1.293-2.087-.019-1.07-.905-1.754-.886-.702-2.733-1.071l-4.912-.979q-4.155-.831-6.186-2.88-2.013-2.05-2.013-5.226 0-2.733 1.477-4.709 1.497-1.976 4.192-3.047 2.715-1.071 6.352-1.071 5.374 0 8.458 2.272 3.102 2.271 3.619 6.186m-28.368-8.088v5.909h-17.081v-5.909zm-13.203-6.796h7.866v26.443q0 1.09.333 1.699.332.591.923.831.61.24 1.403.24.555 0 1.108-.092.555-.11.85-.166l1.237 5.853q-.591.185-1.662.425-1.071.258-2.604.314-2.844.11-4.985-.757-2.124-.868-3.306-2.696t-1.163-4.617zM287.65 273.42v16.398h-7.866v-28.363h7.497v5.004h.332a7.9 7.9 0 0 1 3.158-3.915q2.215-1.46 5.373-1.459 2.956 0 5.152 1.293t3.417 3.693q1.218 2.382 1.218 5.687v18.06h-7.866v-16.656q.018-2.604-1.33-4.063-1.347-1.476-3.711-1.477-1.589 0-2.807.683-1.2.684-1.884 1.995-.665 1.292-.683 3.12m-26.018 16.952q-4.377 0-7.534-1.773-3.14-1.79-4.838-5.059-1.7-3.288-1.699-7.774 0-4.377 1.699-7.682 1.698-3.306 4.782-5.152 3.102-1.847 7.276-1.847 2.806 0 5.226.905a11.6 11.6 0 0 1 4.247 2.678q1.828 1.791 2.844 4.505 1.015 2.697 1.015 6.316v2.16H250.7v-4.875h16.545q0-1.699-.738-3.01a5.3 5.3 0 0 0-2.05-2.05q-1.293-.757-3.01-.757-1.791 0-3.176.831a5.8 5.8 0 0 0-2.142 2.198q-.776 1.366-.794 3.047v4.635q0 2.105.775 3.637.795 1.533 2.235 2.364t3.416.831q1.31 0 2.401-.369a5 5 0 0 0 1.865-1.108 4.8 4.8 0 0 0 1.181-1.81l7.276.48q-.553 2.622-2.271 4.58-1.7 1.938-4.395 3.028-2.678 1.071-6.186 1.071m-37.408-16.952v16.398h-7.866v-28.363h7.497v5.004h.332a7.9 7.9 0 0 1 3.158-3.915q2.216-1.46 5.374-1.459 2.954 0 5.152 1.293t3.416 3.693q1.219 2.382 1.219 5.687v18.06h-7.867v-16.656q.018-2.604-1.329-4.063-1.348-1.476-3.712-1.477-1.588 0-2.807.683-1.2.684-1.883 1.995-.665 1.292-.684 3.12m-26.941 16.952q-4.303 0-7.442-1.828-3.121-1.846-4.82-5.134-1.699-3.305-1.699-7.663 0-4.395 1.699-7.682 1.699-3.305 4.82-5.133 3.139-1.847 7.442-1.847 4.302 0 7.423 1.847 3.139 1.828 4.838 5.133 1.7 3.287 1.699 7.682 0 4.358-1.699 7.663-1.699 3.288-4.838 5.134-3.121 1.828-7.423 1.828m.037-6.094q1.957 0 3.268-1.108 1.311-1.126 1.976-3.065.683-1.94.683-4.413 0-2.475-.683-4.414-.665-1.938-1.976-3.065-1.311-1.126-3.268-1.126-1.977 0-3.324 1.126-1.33 1.127-2.013 3.065-.665 1.94-.665 4.414t.665 4.413q.683 1.939 2.013 3.065 1.347 1.108 3.324 1.108m-45.759 16.177v-39h7.756v4.764h.351q.517-1.146 1.495-2.327.998-1.2 2.586-1.994 1.606-.813 3.988-.813 3.103 0 5.725 1.625 2.622 1.607 4.191 4.857 1.57 3.231 1.57 8.106 0 4.746-1.533 8.014-1.514 3.25-4.136 4.931-2.604 1.662-5.835 1.662-2.29 0-3.897-.757-1.587-.758-2.603-1.902-1.015-1.164-1.551-2.345h-.24v15.179zm7.7-24.819q0 2.53.702 4.414t2.031 2.936q1.33 1.034 3.232 1.034 1.92 0 3.25-1.053 1.329-1.071 2.013-2.954.7-1.902.701-4.377 0-2.455-.683-4.321t-2.013-2.917q-1.33-1.053-3.268-1.053-1.921 0-3.25 1.016-1.311 1.015-2.013 2.88-.702 1.866-.702 4.395m-55.13 14.182v-28.363h7.498v5.004h.332q.887-2.493 2.954-3.933 2.069-1.441 4.949-1.441 2.917 0 4.968 1.459 2.049 1.44 2.733 3.915h.295q.868-2.438 3.139-3.897 2.29-1.476 5.411-1.477 3.97 0 6.444 2.53 2.493 2.511 2.493 7.128v19.075h-7.848v-17.524q0-2.364-1.255-3.545-1.256-1.182-3.14-1.182-2.142 0-3.342 1.366-1.2 1.348-1.2 3.564v17.321h-7.627v-17.69q0-2.087-1.2-3.324-1.182-1.237-3.121-1.237-1.311 0-2.363.665-1.035.646-1.644 1.828-.609 1.162-.609 2.733v17.025zm-19.075.554q-4.302 0-7.442-1.828-3.12-1.846-4.82-5.134-1.698-3.305-1.698-7.663 0-4.395 1.699-7.682 1.698-3.305 4.82-5.133 3.138-1.847 7.441-1.847t7.423 1.847q3.14 1.828 4.838 5.133 1.7 3.287 1.7 7.682 0 4.358-1.7 7.663-1.698 3.288-4.838 5.134-3.12 1.828-7.423 1.828m.037-6.094q1.957 0 3.269-1.108 1.31-1.126 1.975-3.065.684-1.94.683-4.413 0-2.475-.683-4.414-.665-1.938-1.975-3.065-1.312-1.126-3.269-1.126-1.975 0-3.324 1.126-1.329 1.127-2.013 3.065-.664 1.94-.664 4.414t.664 4.413q.684 1.939 2.013 3.065 1.349 1.108 3.324 1.108M66.655 265.24h-8.088q-.222-1.57-.905-2.788a7.1 7.1 0 0 0-1.754-2.105 7.7 7.7 0 0 0-2.475-1.33q-1.384-.462-3.01-.462-2.936 0-5.115 1.459-2.179 1.44-3.38 4.21-1.2 2.752-1.2 6.685 0 4.044 1.2 6.796 1.22 2.751 3.399 4.154t5.04 1.404q1.608 0 2.974-.425a7.8 7.8 0 0 0 2.456-1.237 7.1 7.1 0 0 0 1.773-2.013q.72-1.182.997-2.696l8.088.037a14.6 14.6 0 0 1-1.57 5.023q-1.237 2.4-3.342 4.302-2.086 1.884-4.986 2.992-2.88 1.089-6.518 1.089-5.06 0-9.049-2.29-3.97-2.29-6.278-6.629-2.29-4.34-2.29-10.507 0-6.187 2.327-10.525 2.326-4.34 6.315-6.611 3.989-2.29 8.974-2.29 3.288 0 6.094.923 2.826.923 5.005 2.696a13.9 13.9 0 0 1 3.545 4.303q1.385 2.548 1.773 5.835m48.542-27.422V200h7.866v14.219h.241q.516-1.145 1.495-2.327.998-1.2 2.586-1.994 1.606-.813 3.988-.813 3.102 0 5.725 1.625 2.622 1.607 4.191 4.857 1.57 3.231 1.57 8.106 0 4.746-1.533 8.015-1.514 3.25-4.136 4.93-2.604 1.662-5.835 1.662-2.29 0-3.897-.757-1.587-.758-2.603-1.902-1.016-1.164-1.551-2.345h-.351v4.542zm7.7-14.182q0 2.53.702 4.414t2.031 2.936q1.33 1.034 3.232 1.034 1.92 0 3.25-1.053 1.329-1.071 2.013-2.954.7-1.902.701-4.377 0-2.455-.683-4.321t-2.013-2.917q-1.33-1.053-3.268-1.053-1.921 0-3.25 1.016-1.311 1.015-2.013 2.88-.702 1.866-.702 4.395m-26 14.736q-4.376 0-7.534-1.773-3.139-1.79-4.838-5.059-1.698-3.288-1.699-7.774 0-4.377 1.7-7.682 1.698-3.306 4.782-5.152 3.102-1.847 7.275-1.847 2.808 0 5.226.905a11.6 11.6 0 0 1 4.247 2.678q1.829 1.791 2.844 4.505 1.016 2.697 1.016 6.316v2.16h-23.95v-4.875h16.545q0-1.699-.739-3.01a5.3 5.3 0 0 0-2.05-2.05q-1.291-.757-3.01-.757-1.79 0-3.175.831a5.8 5.8 0 0 0-2.143 2.198q-.775 1.366-.794 3.047v4.635q0 2.105.776 3.637.794 1.533 2.234 2.364t3.417.831q1.311 0 2.4-.369a5 5 0 0 0 1.865-1.108 4.8 4.8 0 0 0 1.182-1.81l7.276.48q-.555 2.622-2.272 4.58-1.698 1.938-4.395 3.028-2.677 1.071-6.186 1.071m-55.097-.554L30.979 200h8.734l6.26 26.277h.314L53.193 200h7.479l6.888 26.332h.332L74.152 200h8.734l-10.82 37.818h-7.793l-7.202-24.726h-.295l-7.184 24.726z"/><circle cx="500" cy="250" r="105" fill="#fff"/><path fill="#222" d="M581.24 266.643q-3.557.954-6.762-.87-3.174-1.832-4.094-5.397-.967-3.482.873-6.622 1.865-3.183 5.421-4.135 3.36-.9 6.598.914 3.264 1.773 4.232 5.255.601 2.38-.096 4.649a9.3 9.3 0 0 1-2.299 3.933 8.2 8.2 0 0 1-3.873 2.273m-46.727-39.114q-1.3-3.534-4.439-4.845-3.116-1.353-7.891-.074-3.16.846-5.048 2.235t-2.552 3.119q-.675 1.698-.213 3.551.34 1.533 1.307 2.509 1 .966 2.523 1.512 1.546.503 3.567.667t4.458.041l6.148-.235q5.297-.255 9.602.533 4.337.778 7.61 2.584 3.305 1.797 5.528 4.695 2.225 2.898 3.342 6.94 1.679 6.397-.289 11.83t-7.308 9.476q-5.307 4.033-13.737 6.292-8.463 2.268-15.431 1.417-6.97-.849-11.845-5.085-4.876-4.234-7.092-12.111l15.608-4.182q1.071 3.207 3.201 4.966 2.13 1.758 5.13 2.154 3.034.388 6.623-.574 3.293-.882 5.36-2.389 2.099-1.515 2.927-3.432.828-1.916.314-3.966-.545-1.9-2.059-2.942-1.524-1.074-4.192-1.418-2.644-.386-6.562-.254l-7.488.242q-9.297.339-15.535-2.79-6.248-3.162-8.27-10.843-1.71-6.247.42-11.865t7.418-9.858q5.286-4.24 12.959-6.296 7.838-2.1 14.315-.977 6.502 1.082 10.975 5 4.473 3.92 6.225 10.191zm-98.097 4.615 28.317 45.353.56-.15 1.846-53.435 18.243-4.888-4.684 73.536-21.7 5.815-40.825-61.343z"/><path fill="#42B883" d="M907.719 82.594 895 104.422l-12.719-21.828H840l55 94.531 55-94.531z"/><path fill="#35495E" d="M907.719 82.594 895 104.422l-12.719-21.828H862l33 56.718 33-56.718z"/><g fill="#58C4DC" clip-path="url(#b)"><path d="M696.5 140.188c5.944 0 10.762-4.785 10.762-10.688s-4.818-10.688-10.762-10.688-10.762 4.785-10.762 10.688 4.818 10.688 10.762 10.688"/><path fill-rule="evenodd" d="M659.555 114.932c-9.569 4.277-14.174 9.634-14.174 14.568s4.605 10.291 14.174 14.568c9.317 4.163 22.376 6.808 36.945 6.808s27.628-2.645 36.945-6.808c9.569-4.277 14.174-9.634 14.174-14.568s-4.605-10.291-14.174-14.568c-9.317-4.163-22.376-6.808-36.945-6.808s-27.628 2.645-36.945 6.808m-2.208-4.873c10.158-4.54 24.004-7.279 39.153-7.279s28.995 2.739 39.153 7.279C745.559 114.486 753 121.153 753 129.5s-7.441 15.014-17.347 19.441c-10.158 4.54-24.004 7.279-39.153 7.279s-28.995-2.739-39.153-7.279C647.441 144.514 640 137.847 640 129.5s7.441-15.014 17.347-19.441" clip-rule="evenodd"/><path fill-rule="evenodd" d="M690.731 90.441c-8.514-6.092-15.488-7.374-19.791-4.907-4.302 2.467-6.671 9.106-5.616 19.475 1.028 10.094 5.251 22.649 12.536 35.179s16.12 22.44 24.409 28.371c8.514 6.092 15.488 7.374 19.79 4.907 4.303-2.467 6.672-9.106 5.617-19.475-1.028-10.094-5.251-22.649-12.536-35.179s-16.12-22.44-24.409-28.37m3.145-4.336c9.039 6.467 18.349 17.006 25.924 30.035s12.109 26.307 13.23 37.314c1.092 10.733-1.001 20.466-8.28 24.64s-16.813 1.107-25.626-5.199c-9.039-6.467-18.35-17.006-25.924-30.035-7.575-13.03-12.109-26.307-13.23-37.314-1.092-10.733 1.001-20.466 8.28-24.64s16.813-1.107 25.626 5.2" clip-rule="evenodd"/><path fill-rule="evenodd" d="M727.676 105.009c1.055-10.369-1.314-17.008-5.616-19.475-4.303-2.467-11.277-1.185-19.791 4.907-8.289 5.931-17.125 15.841-24.409 28.371s-11.508 25.085-12.536 35.179c-1.055 10.369 1.314 17.008 5.617 19.475 4.302 2.467 11.276 1.185 19.79-4.907 8.289-5.931 17.125-15.841 24.409-28.371 7.285-12.53 11.508-25.085 12.536-35.179m5.354.537c-1.121 11.007-5.655 24.284-13.23 37.314-7.574 13.029-16.885 23.568-25.924 30.035-8.813 6.306-18.347 9.372-25.626 5.199-7.279-4.174-9.372-13.907-8.279-24.64 1.12-11.007 5.654-24.284 13.229-37.314 7.575-13.029 16.886-23.568 25.924-30.035 8.813-6.306 18.347-9.372 25.626-5.199 7.279 4.174 9.372 13.907 8.28 24.64" clip-rule="evenodd"/></g><path fill="#76B3E1" d="M766.379 321.425s-46.295-33.902-82.108-26.079l-2.62.87c-5.241 1.738-9.609 4.346-12.229 7.823l-1.747 2.608-13.103 22.602 22.711 4.346c9.609 6.085 21.837 8.693 33.193 6.085l40.181 7.824z"/><path fill="url(#c)" d="M766.379 321.425s-46.295-33.902-82.108-26.079l-2.62.87c-5.241 1.738-9.609 4.346-12.229 7.823l-1.747 2.608-13.103 22.602 22.711 4.346c9.609 6.085 21.837 8.693 33.193 6.085l40.181 7.824z" opacity=".3"/><path fill="#518AC8" d="m669.422 321.425-3.494.869c-14.85 4.347-19.217 18.255-11.356 30.425 8.735 11.301 27.079 17.386 41.928 13.04l54.157-18.255s-46.296-33.903-81.235-26.079"/><path fill="url(#d)" d="m669.422 321.425-3.494.869c-14.85 4.347-19.217 18.255-11.356 30.425 8.735 11.301 27.079 17.386 41.928 13.04l54.157-18.255s-46.296-33.903-81.235-26.079" opacity=".3"/><path fill="url(#e)" d="M741.048 360.543a39.3 39.3 0 0 0-18.963-12.892 39.5 39.5 0 0 0-22.964-.147l-54.157 17.385-17.47 30.425 97.831 16.517 17.47-31.295c3.494-6.085 2.621-13.039-1.747-19.993"/><path fill="url(#f)" d="M723.578 390.968a39.3 39.3 0 0 0-18.962-12.892 39.5 39.5 0 0 0-22.965-.147l-54.157 17.385s46.295 34.772 82.108 26.079l2.621-.87c14.849-4.346 20.09-18.255 11.355-29.555"/><path fill="#FF3E00" d="M943.851 308.807c-12.498-17.886-37.181-23.188-55.027-11.818l-31.336 19.977a35.9 35.9 0 0 0-10.667 10.328 35.9 35.9 0 0 0-5.585 13.757 37.87 37.87 0 0 0 3.735 24.311 36.1 36.1 0 0 0-5.38 13.438 38.34 38.34 0 0 0 6.547 28.98c12.497 17.889 37.182 23.192 55.026 11.818l31.343-19.976a35.94 35.94 0 0 0 16.244-24.085 37.87 37.87 0 0 0-3.725-24.313 36.1 36.1 0 0 0 5.376-13.437 38.3 38.3 0 0 0-6.545-28.98"/><path fill="#fff" d="M885.762 409.463a24.89 24.89 0 0 1-26.722-9.905 23.04 23.04 0 0 1-3.936-17.424q.272-1.49.748-2.926l.59-1.803 1.607 1.179a40.4 40.4 0 0 0 12.257 6.129l1.164.353-.107 1.163a7.02 7.02 0 0 0 1.266 4.657 7.5 7.5 0 0 0 8.051 2.986 7 7 0 0 0 1.923-.841l31.342-19.98a6.52 6.52 0 0 0 2.945-4.363 6.96 6.96 0 0 0-1.187-5.252 7.5 7.5 0 0 0-3.556-2.76 7.5 7.5 0 0 0-4.495-.229 7 7 0 0 0-1.923.841l-11.96 7.625a23 23 0 0 1-6.369 2.795 24.9 24.9 0 0 1-26.722-9.905 23.04 23.04 0 0 1-3.938-17.425 21.6 21.6 0 0 1 3.361-8.272 21.6 21.6 0 0 1 6.417-6.208l31.346-19.975a22.9 22.9 0 0 1 6.369-2.799 24.9 24.9 0 0 1 26.722 9.905 23.04 23.04 0 0 1 3.937 17.425 22 22 0 0 1-.749 2.926l-.59 1.802-1.606-1.176a40.4 40.4 0 0 0-12.257-6.129l-1.166-.353.109-1.163a7.04 7.04 0 0 0-1.265-4.66 7.5 7.5 0 0 0-8.051-2.987 6.9 6.9 0 0 0-1.922.842l-31.351 19.98a6.5 6.5 0 0 0-1.931 1.871 6.5 6.5 0 0 0-1.012 2.491 6.96 6.96 0 0 0 1.185 5.254 7.51 7.51 0 0 0 8.051 2.988 7 7 0 0 0 1.923-.841l11.959-7.621a22.8 22.8 0 0 1 6.369-2.797 24.89 24.89 0 0 1 26.72 9.905 23.03 23.03 0 0 1 3.938 17.424 21.62 21.62 0 0 1-9.769 14.485l-31.346 19.97a22.9 22.9 0 0 1-6.369 2.798"/><path fill="#DD0031" d="M803.818 171 742 193.045l9.429 81.738 52.389 29.017 52.39-29.017 9.429-81.738z"/><path fill="#C3002F" d="M803.818 171v14.741-.067V303.8l52.39-29.017 9.429-81.738z"/><path fill="#fff" d="m803.818 185.674-38.644 86.652h14.408l7.769-19.388h32.802l7.769 19.388h14.408zm11.288 55.312H792.53l11.288-27.158z"/></g><defs><linearGradient id="c" x1="648.021" x2="756.57" y1="293.608" y2="346.612" gradientUnits="userSpaceOnUse"><stop offset=".1" stop-color="#76B3E1"/><stop offset=".3" stop-color="#DCF2FD"/><stop offset="1" stop-color="#76B3E1"/></linearGradient><linearGradient id="d" x1="707.681" x2="688.807" y1="319.339" y2="382.499" gradientUnits="userSpaceOnUse"><stop stop-color="#76B3E1"/><stop offset=".5" stop-color="#4377BB"/><stop offset="1" stop-color="#1F3B77"/></linearGradient><linearGradient id="e" x1="640.072" x2="749.709" y1="346.808" y2="421.711" gradientUnits="userSpaceOnUse"><stop stop-color="#315AA9"/><stop offset=".5" stop-color="#518AC8"/><stop offset="1" stop-color="#315AA9"/></linearGradient><linearGradient id="f" x1="689.687" x2="645.711" y1="355.762" y2="517.817" gradientUnits="userSpaceOnUse"><stop stop-color="#4377BB"/><stop offset=".5" stop-color="#1A336B"/><stop offset="1" stop-color="#1A336B"/></linearGradient><clipPath id="a"><rect width="1000" height="500" fill="#fff" rx="20"/></clipPath><clipPath id="b"><path fill="#fff" d="M640 79h113v101H640z"/></clipPath></defs></svg>