<svg xmlns="http://www.w3.org/2000/svg" width="132" height="179" viewBox="0 0 132 179">

    <g fill="#1FB1D8">

        <circle cx="109" cy="57" r="22" fill-opacity=".30" />
        <circle cx="107" cy="49" r="2" fill-opacity=".2" />
        <circle cx="103" cy="41" r="16" fill-opacity=".43" />
        <circle cx="98" cy="35" r="13" fill-opacity=".10" />
        <circle cx="91" cy="28" r="7" fill-opacity=".21" />
        <circle cx="81" cy="23" r="22" fill-opacity=".43" />
        <circle cx="71" cy="22" r="8" fill-opacity=".17" />
        <circle cx="61" cy="22" r="17" fill-opacity=".43" />
        <circle cx="53" cy="24" r="2" fill-opacity=".37" />
        <circle cx="44" cy="27" r="17" fill-opacity=".9" />
        <circle cx="36" cy="29" r="10" fill-opacity=".20" />
        <circle cx="32" cy="35" r="19" fill-opacity=".8" />
        <circle cx="28" cy="41" r="1" fill-opacity=".27" />
        <circle cx="26" cy="50" r="14" fill-opacity=".35" />
        <circle cx="26" cy="57" r="2" fill-opacity=".34" />
        <circle cx="27" cy="63" r="17" fill-opacity=".5" />
        <circle cx="31" cy="68" r="5" fill-opacity=".42" />
        <circle cx="37" cy="73" r="6" fill-opacity=".9" />
        <circle cx="43" cy="75" r="13" fill-opacity=".44" />
        <circle cx="51" cy="80" r="22" fill-opacity=".2" />
        <circle cx="59" cy="82" r="6" fill-opacity=".50" />
        <circle cx="68" cy="84" r="2" fill-opacity=".41" />
        <circle cx="77" cy="89" r="9" fill-opacity=".43" />
        <circle cx="83" cy="91" r="20" fill-opacity=".35" />
        <circle cx="93" cy="94" r="4" fill-opacity=".37" />
        <circle cx="99" cy="95" r="23" fill-opacity=".44" />
        <circle cx="106" cy="101" r="11" fill-opacity=".48" />
        <circle cx="110" cy="107" r="18" fill-opacity=".2" />
        <circle cx="112" cy="112" r="13" fill-opacity=".25" />
        <circle cx="114" cy="121" r="2" fill-opacity=".37" />
        <circle cx="113" cy="128" r="8" fill-opacity=".22" />
        <circle cx="110" cy="135" r="11" fill-opacity=".27" />
        <circle cx="105" cy="142" r="8" fill-opacity=".9" />
        <circle cx="96" cy="148" r="5" fill-opacity=".5" />
        <circle cx="90" cy="150" r="21" fill-opacity=".46" />
        <circle cx="82" cy="152" r="3" fill-opacity=".3" />
        <circle cx="72" cy="152" r="25" fill-opacity=".25" />
        <circle cx="63" cy="153" r="25" fill-opacity=".27" />
        <circle cx="53" cy="151" r="5" fill-opacity=".36" />
        <circle cx="44" cy="149" r="5" fill-opacity=".38" />
        <circle cx="37" cy="141" r="6" fill-opacity=".2" />
        <circle cx="27" cy="136" r="2" fill-opacity=".25" />
        <circle cx="24" cy="130" r="23" fill-opacity=".4" />
        <circle cx="20" cy="123" r="16" fill-opacity=".48" />

    </g>

</svg>